# xmcd CD database file
#
# Track frame offsets:
#	150
#	16069
#	31266
#	48181
#	65843
#	85382
#	100527
#	115325
#	130759
#	148854
#	166189
#	180659
#
# Disc length: 2618 seconds
#
# Revision: 1
# Processed by: cddbd v1.5.2PL0 Copyright (c) Steve Scherf et al.
# Submitted via: CDex 1.50
#
DISCID=980a380c
DTITLE=Evelyn Fischer - vorwiegend heiter
DYEAR=2008
DGENRE=Jazz
TTITLE0=Männer mit Hunden
TTITLE1=Vorwiegend heiter
TTITLE2=Was sagen die Sterne
TTITLE3=Sommersonntagnachmittag
TTITLE4=Ich traf Jesus
TTITLE5=Gestern
TTITLE6=Denglisch - Englisch
TTITLE7=Dann lief sie los
TTITLE8=Ist das wahr
TTITLE9=Weg vom Fenster
TTITLE10=Ich verlieb mich nie in dich
TTITLE11=Zu schön um wahr zu sein
EXTD=YEAR: 2008
EXTT0=
EXTT1=
EXTT2=
EXTT3=
EXTT4=
EXTT5=
EXTT6=
EXTT7=
EXTT8=
EXTT9=
EXTT10=
EXTT11=
PLAYORDER=
